<?xml version="1.0" encoding="utf-8"?>
<!-- Generator: Adobe Illustrator 23.1.0, SVG Export Plug-In . SVG Version: 6.00 Build 0)  -->
<svg version="1.1" xmlns="http://www.w3.org/2000/svg" xmlns:xlink="http://www.w3.org/1999/xlink" x="0px" y="0px"
	 viewBox="0 0 1728 1296" style="enable-background:new 0 0 1728 1296;" xml:space="preserve">
<style type="text/css">
	.st0{fill:none;stroke:#FF0000;stroke-miterlimit:10;}
	.st1{fill:#231F20;}
</style>
<g id="CUT">
	<g id="CIRCLE">
		<path class="st0" d="M513.62,217.59c0-4.97,4.03-9,9-9c4.97,0,9,4.03,9,9c0,4.97-4.03,9-9,9
			C517.66,226.59,513.62,222.56,513.62,217.59L513.62,217.59z"/>
	</g>
	<g id="CIRCLE_1_">
		<path class="st0" d="M513.62,90.08c0-4.97,4.03-9,9-9c4.97,0,9,4.03,9,9c0,4.97-4.03,9-9,9
			C517.66,99.08,513.62,95.05,513.62,90.08L513.62,90.08z"/>
	</g>
	<g id="CIRCLE_2_">
		<path class="st0" d="M386.12,90.08c0-4.97,4.03-9,9-9s9,4.03,9,9c0,4.97-4.03,9-9,9S386.12,95.05,386.12,90.08L386.12,90.08z"/>
	</g>
	<g id="CIRCLE_3_">
		<path class="st0" d="M223.88,217.59c0-4.97,4.03-9,9-9c4.97,0,9,4.03,9,9c0,4.97-4.03,9-9,9
			C227.91,226.59,223.88,222.56,223.88,217.59L223.88,217.59z"/>
	</g>
	<g id="LINE">
		<line class="st0" x1="350.93" y1="107.83" x2="350.93" y2="286.27"/>
	</g>
	<g id="LINE_1_">
		<line class="st0" x1="368.93" y1="107.83" x2="350.93" y2="107.83"/>
	</g>
	<g id="LINE_2_">
		<line class="st0" x1="368.93" y1="286.27" x2="368.93" y2="107.83"/>
	</g>
	<g id="LINE_3_">
		<line class="st0" x1="350.93" y1="286.27" x2="368.93" y2="286.27"/>
	</g>
	<g id="CIRCLE_4_">
		<path class="st0" d="M96.37,90.08c0-4.97,4.03-9,9-9c4.97,0,9,4.03,9,9c0,4.97-4.03,9-9,9C100.4,99.08,96.37,95.05,96.37,90.08
			L96.37,90.08z"/>
	</g>
	<g id="CIRCLE_5_">
		<path class="st0" d="M223.88,90.08c0-4.97,4.03-9,9-9c4.97,0,9,4.03,9,9c0,4.97-4.03,9-9,9
			C227.91,99.08,223.88,95.05,223.88,90.08L223.88,90.08z"/>
	</g>
	<g id="CIRCLE_6_">
		<path class="st0" d="M96.37,217.59c0-4.97,4.03-9,9-9c4.97,0,9,4.03,9,9c0,4.97-4.03,9-9,9
			C100.4,226.59,96.37,222.56,96.37,217.59L96.37,217.59z"/>
	</g>
	<g id="CIRCLE_7_">
		<path class="st0" d="M377.03,480.36c0-4.97,4.03-9,9-9c4.97,0,9,4.03,9,9c0,4.97-4.03,9-9,9
			C381.06,489.37,377.03,485.34,377.03,480.36L377.03,480.36z"/>
	</g>
	<g id="CIRCLE_8_">
		<path class="st0" d="M232.97,480.36c0-4.97,4.03-9,9-9c4.97,0,9,4.03,9,9c0,4.97-4.03,9-9,9
			C237,489.37,232.97,485.34,232.97,480.36L232.97,480.36z"/>
	</g>
	<g id="CIRCLE_9_">
		<path class="st0" d="M232.97,352.15c0-4.97,4.03-9,9-9c4.97,0,9,4.03,9,9s-4.03,9-9,9C237,361.15,232.97,357.12,232.97,352.15
			L232.97,352.15z"/>
	</g>
	<g id="CIRCLE_10_">
		<path class="st0" d="M377.03,352.15c0-4.97,4.03-9,9-9c4.97,0,9,4.03,9,9s-4.03,9-9,9C381.06,361.15,377.03,357.12,377.03,352.15
			L377.03,352.15z"/>
	</g>
	<g id="CIRCLE_11_">
		<path class="st0" d="M386.12,217.59c0-4.97,4.03-9,9-9s9,4.03,9,9c0,4.97-4.03,9-9,9S386.12,222.56,386.12,217.59L386.12,217.59z"
			/>
	</g>
	<g id="LINE_4_">
		<line class="st0" x1="259.07" y1="107.83" x2="259.07" y2="286.27"/>
	</g>
	<g id="LINE_5_">
		<line class="st0" x1="277.07" y1="107.83" x2="259.07" y2="107.83"/>
	</g>
	<g id="LINE_6_">
		<line class="st0" x1="277.07" y1="286.27" x2="277.07" y2="107.83"/>
	</g>
	<g id="LINE_7_">
		<line class="st0" x1="259.07" y1="286.27" x2="277.07" y2="286.27"/>
	</g>
	<g id="ARC">
		<path class="st0" d="M422.3,605.1c99.45,0,180.07-80.62,180.07-180.07"/>
	</g>
	<g id="LINE_8_">
		<line class="st0" x1="602.37" y1="28.87" x2="602.37" y2="425.03"/>
	</g>
	<g id="LINE_9_">
		<line class="st0" x1="26.14" y1="28.87" x2="602.37" y2="28.87"/>
	</g>
	<g id="LINE_10_">
		<line class="st0" x1="26.14" y1="425.03" x2="26.14" y2="28.87"/>
	</g>
	<g id="ARC_1_">
		<path class="st0" d="M26.14,425.03c0,99.45,80.62,180.07,180.07,180.07"/>
	</g>
	<g id="LINE_11_">
		<line class="st0" x1="422.3" y1="605.1" x2="206.21" y2="605.1"/>
	</g>
</g>
<g id="ETCH">
</g>
<g id="RASTER">
</g>
<g id="TEMPLATE">
	<g id="BOUNDARY">
		<path class="st1" d="M1719,8.93h-20V9h20V8.93L1719,8.93z M1679,8.93h-20V9h20V8.93L1679,8.93z M1639,8.93h-20V9h20V8.93
			L1639,8.93z M1599,8.93h-20V9h20V8.93L1599,8.93z M1559,8.93h-20V9h20V8.93L1559,8.93z M1519,8.93h-20V9h20V8.93L1519,8.93z
			 M1479,8.93h-20V9h20V8.93L1479,8.93z M1439,8.93h-20V9h20V8.93L1439,8.93z M1399,8.93h-20V9h20V8.93L1399,8.93z M1359,8.93h-20V9
			h20V8.93L1359,8.93z M1319,8.93h-20V9h20V8.93L1319,8.93z M1279,8.93h-20V9h20V8.93L1279,8.93z M1239,8.93h-20V9h20V8.93
			L1239,8.93z M1199,8.93h-20V9h20V8.93L1199,8.93z M1159,8.93h-20V9h20V8.93L1159,8.93z M1119,8.93h-20V9h20V8.93L1119,8.93z
			 M1079,8.93h-20V9h20V8.93L1079,8.93z M1039,8.93h-20V9h20V8.93L1039,8.93z M999,8.93h-20V9h20V8.93L999,8.93z M959,8.93h-20V9h20
			V8.93L959,8.93z M919,8.93h-20V9h20V8.93L919,8.93z M879,8.93h-20V9h20V8.93L879,8.93z M839,8.93h-20V9h20V8.93L839,8.93z
			 M799,8.93h-20V9h20V8.93L799,8.93z M759,8.93h-20V9h20V8.93L759,8.93z M719,8.93h-20V9h20V8.93L719,8.93z M679,8.93h-20V9h20
			V8.93L679,8.93z M639,8.93h-20V9h20V8.93L639,8.93z M599,8.93h-20V9h20V8.93L599,8.93z M559,8.93h-20V9h20V8.93L559,8.93z
			 M519,8.93h-20V9h20V8.93L519,8.93z M479,8.93h-20V9h20V8.93L479,8.93z M439,8.93h-20V9h20V8.93L439,8.93z M399,8.93h-20V9h20
			V8.93L399,8.93z M359,8.93h-20V9h20V8.93L359,8.93z M319,8.93h-20V9h20V8.93L319,8.93z M279,8.93h-20V9h20V8.93L279,8.93z
			 M239,8.93h-20V9h20V8.93L239,8.93z M199,8.93h-20V9h20V8.93L199,8.93z M159,8.93h-20V9h20V8.93L159,8.93z M119,8.93H99V9h20V8.93
			L119,8.93z M79,8.93H59V9h20V8.93L79,8.93z M39,8.93H19V9h20V8.93L39,8.93z M9,19H8.93v20H9V19L9,19z M9,59H8.93v20H9V59L9,59z
			 M9,99H8.93v20H9V99L9,99z M9,139H8.93v20H9V139L9,139z M9,179H8.93v20H9V179L9,179z M9,219H8.93v20H9V219L9,219z M9,259H8.93v20
			H9V259L9,259z M9,299H8.93v20H9V299L9,299z M9,339H8.93v20H9V339L9,339z M9,379H8.93v20H9V379L9,379z M9,419H8.93v20H9V419L9,419z
			 M9,459H8.93v20H9V459L9,459z M9,499H8.93v20H9V499L9,499z M9,539H8.93v20H9V539L9,539z M9,579H8.93v20H9V579L9,579z M9,619H8.93
			v20H9V619L9,619z M9,659H8.93v20H9V659L9,659z M9,699H8.93v20H9V699L9,699z M9,739H8.93v20H9V739L9,739z M9,779H8.93v20H9V779
			L9,779z M9,819H8.93v20H9V819L9,819z M9,859H8.93v20H9V859L9,859z M9,899H8.93v20H9V899L9,899z M9,939H8.93v20H9V939L9,939z
			 M9,979H8.93v20H9V979L9,979z M9,1019H8.93v20H9V1019L9,1019z M9,1059H8.93v20H9V1059L9,1059z M9,1099H8.93v20H9V1099L9,1099z
			 M9,1139H8.93v20H9V1139L9,1139z M9,1179H8.93v20H9V1179L9,1179z M9,1219H8.93v20H9V1219L9,1219z M9,1259H8.93v20H9V1259L9,1259z
			 M41,1287H21v0.07h20V1287L41,1287z M81,1287H61v0.07h20V1287L81,1287z M121,1287h-20v0.07h20V1287L121,1287z M161,1287h-20v0.07
			h20V1287L161,1287z M201,1287h-20v0.07h20V1287L201,1287z M241,1287h-20v0.07h20V1287L241,1287z M281,1287h-20v0.07h20V1287
			L281,1287z M321,1287h-20v0.07h20V1287L321,1287z M361,1287h-20v0.07h20V1287L361,1287z M401,1287h-20v0.07h20V1287L401,1287z
			 M441,1287h-20v0.07h20V1287L441,1287z M481,1287h-20v0.07h20V1287L481,1287z M521,1287h-20v0.07h20V1287L521,1287z M561,1287h-20
			v0.07h20V1287L561,1287z M601,1287h-20v0.07h20V1287L601,1287z M641,1287h-20v0.07h20V1287L641,1287z M681,1287h-20v0.07h20V1287
			L681,1287z M721,1287h-20v0.07h20V1287L721,1287z M761,1287h-20v0.07h20V1287L761,1287z M801,1287h-20v0.07h20V1287L801,1287z
			 M841,1287h-20v0.07h20V1287L841,1287z M881,1287h-20v0.07h20V1287L881,1287z M921,1287h-20v0.07h20V1287L921,1287z M961,1287h-20
			v0.07h20V1287L961,1287z M1001,1287h-20v0.07h20V1287L1001,1287z M1041,1287h-20v0.07h20V1287L1041,1287z M1081,1287h-20v0.07h20
			V1287L1081,1287z M1121,1287h-20v0.07h20V1287L1121,1287z M1161,1287h-20v0.07h20V1287L1161,1287z M1201,1287h-20v0.07h20V1287
			L1201,1287z M1241,1287h-20v0.07h20V1287L1241,1287z M1281,1287h-20v0.07h20V1287L1281,1287z M1321,1287h-20v0.07h20V1287
			L1321,1287z M1361,1287h-20v0.07h20V1287L1361,1287z M1401,1287h-20v0.07h20V1287L1401,1287z M1441,1287h-20v0.07h20V1287
			L1441,1287z M1481,1287h-20v0.07h20V1287L1481,1287z M1521,1287h-20v0.07h20V1287L1521,1287z M1561,1287h-20v0.07h20V1287
			L1561,1287z M1601,1287h-20v0.07h20V1287L1601,1287z M1641,1287h-20v0.07h20V1287L1641,1287z M1681,1287h-20v0.07h20V1287
			L1681,1287z M1719.07,1285H1719v2l0,0l0,0h-18v0.07h18h0.07V1287V1285L1719.07,1285z M1719.07,1245H1719v20h0.07V1245
			L1719.07,1245z M1719.07,1205H1719v20h0.07V1205L1719.07,1205z M1719.07,1165H1719v20h0.07V1165L1719.07,1165z M1719.07,1125H1719
			v20h0.07V1125L1719.07,1125z M1719.07,1085H1719v20h0.07V1085L1719.07,1085z M1719.07,1045H1719v20h0.07V1045L1719.07,1045z
			 M1719.07,1005H1719v20h0.07V1005L1719.07,1005z M1719.07,965H1719v20h0.07V965L1719.07,965z M1719.07,925H1719v20h0.07V925
			L1719.07,925z M1719.07,885H1719v20h0.07V885L1719.07,885z M1719.07,845H1719v20h0.07V845L1719.07,845z M1719.07,805H1719v20h0.07
			V805L1719.07,805z M1719.07,765H1719v20h0.07V765L1719.07,765z M1719.07,725H1719v20h0.07V725L1719.07,725z M1719.07,685H1719v20
			h0.07V685L1719.07,685z M1719.07,645H1719v20h0.07V645L1719.07,645z M1719.07,605H1719v20h0.07V605L1719.07,605z M1719.07,565
			H1719v20h0.07V565L1719.07,565z M1719.07,525H1719v20h0.07V525L1719.07,525z M1719.07,485H1719v20h0.07V485L1719.07,485z
			 M1719.07,445H1719v20h0.07V445L1719.07,445z M1719.07,405H1719v20h0.07V405L1719.07,405z M1719.07,365H1719v20h0.07V365
			L1719.07,365z M1719.07,325H1719v20h0.07V325L1719.07,325z M1719.07,285H1719v20h0.07V285L1719.07,285z M1719.07,245H1719v20h0.07
			V245L1719.07,245z M1719.07,205H1719v20h0.07V205L1719.07,205z M1719.07,165H1719v20h0.07V165L1719.07,165z M1719.07,125H1719v20
			h0.07V125L1719.07,125z M1719.07,85H1719v20h0.07V85L1719.07,85z M1719.07,45H1719v20h0.07V45L1719.07,45z M1719.07,9H1719v16
			h0.07V9L1719.07,9z"/>
	</g>
</g>
</svg>
